<?xml version="1.0" standalone="no"?>
<!DOCTYPE svg PUBLIC "-//W3C//DTD SVG 20010904//EN"
 "http://www.w3.org/TR/2001/REC-SVG-20010904/DTD/svg10.dtd">
<svg version="1.0" xmlns="http://www.w3.org/2000/svg"
 width="500.000000pt" height="500.000000pt" viewBox="0 0 500.000000 500.000000"
 preserveAspectRatio="xMidYMid meet">
<metadata>
Created by potrace 1.11, written by Peter Selinger 2001-2013
</metadata>
<g transform="translate(0.000000,500.000000) scale(0.100000,-0.100000)"
fill="#000000" stroke="none">
<path d="M74 4978 c-17 -12 -40 -36 -52 -55 -22 -33 -22 -34 -22 -642 0 -501
3 -622 15 -682 8 -41 16 -83 18 -94 7 -38 19 -81 49 -173 18 -58 28 -104 24
-120 -3 -15 -17 -76 -31 -137 -22 -98 -48 -249 -60 -360 -11 -94 -17 -385 -8
-385 5 0 10 -21 12 -47 3 -78 29 -241 56 -353 64 -265 162 -507 296 -726 l37
-61 4 -465 5 -465 28 -52 c75 -138 232 -198 354 -137 73 37 107 71 140 138 30
59 31 65 31 199 0 76 4 140 9 143 4 3 53 -23 107 -59 357 -233 709 -368 1064
-409 162 -19 504 -27 620 -14 85 9 223 34 335 60 303 70 699 266 953 471 45
37 87 67 92 67 6 0 10 -48 11 -117 1 -221 8 -284 35 -340 28 -58 79 -107 147
-141 117 -58 270 0 342 130 l30 53 5 580 c6 630 2 581 65 719 100 219 176 522
202 811 10 112 10 301 0 378 -4 31 -10 83 -13 115 -4 31 -10 67 -15 80 -5 13
-9 35 -9 50 0 38 -52 249 -90 361 -17 52 -55 148 -85 214 l-54 119 -1 302 c-2
421 -8 765 -16 805 -7 41 -46 122 -81 168 -41 54 -115 93 -175 93 -123 0 -275
-139 -414 -379 -26 -46 -54 -85 -61 -88 -7 -3 -73 31 -147 76 -272 165 -567
282 -846 336 -47 9 -92 18 -100 20 -8 1 -53 6 -99 10 -52 5 -78 11 -70 16 10
6 10 9 2 9 -6 0 -14 -4 -18 -10 -3 -5 -15 -6 -29 -1 -30 12 -336 14 -367 3
-13 -5 -58 -13 -98 -16 -41 -4 -77 -9 -80 -11 -4 -2 -24 -6 -46 -9 -176 -28
-361 -84 -571 -171 -72 -31 -106 -41 -109 -32 -3 9 -13 120 -15 160 0 5 -18
27 -41 49 -36 36 -45 40 -78 35 -58 -7 -110 -36 -129 -71 -13 -24 -17 -66 -20
-193 l-4 -163 -67 -49 c-82 -60 -162 -122 -180 -139 -7 -7 -15 -12 -16 -10 -1
2 -5 116 -8 253 -4 138 -11 267 -17 287 -14 49 -69 88 -124 88 -41 0 -100 -30
-116 -59 -18 -34 -20 -79 -26 -480 l-6 -405 -61 -86 c-34 -47 -78 -110 -97
-138 -19 -29 -41 -51 -49 -50 -8 2 -23 16 -35 31 -24 32 -23 16 -29 717 -2
268 -7 372 -16 390 -7 14 -29 37 -48 53 -45 34 -96 36 -139 5z"/>
</g>
</svg>
